<?xml version="1.0" standalone="no"?>
<!DOCTYPE svg PUBLIC "-//W3C//DTD SVG 1.1//EN" "http://www.w3.org/Graphics/SVG/1.1/DTD/svg11.dtd" >
<svg xmlns="http://www.w3.org/2000/svg">
<metadata>Generated by IcoMoon</metadata>
<defs>
<font id="icomoon" horiz-adv-x="1024">
<font-face units-per-em="1024" ascent="960" descent="-64" />
<missing-glyph horiz-adv-x="1024" />
<glyph unicode="&#x20;" d="" horiz-adv-x="512" />
<glyph unicode="&#xe600;" d="M758.047 952.75l-127.652 0.205c-143.401 0-236.063-95.078-236.063-242.237v-111.688h-128.348c-11.090 0-20.070-8.991-20.070-20.081v-161.823c0-11.090 8.991-20.070 20.070-20.070h128.338v-408.33c0-11.090 8.98-20.070 20.070-20.070h167.444c11.090 0 20.070 8.991 20.070 20.070v408.33h150.057c11.090 0 20.070 8.98 20.070 20.070l0.061 161.823c0 5.325-2.12 10.424-5.878 14.193-3.768 3.768-8.878 5.888-14.203 5.888h-150.098v94.679c0 45.507 10.844 68.608 70.113 68.608l85.996 0.031c11.080 0 20.060 8.991 20.060 20.070v150.262c0 11.069-8.97 20.050-20.040 20.070z" />
<glyph unicode="&#xe601;" d="M411.969 667.121c0-46.030-37.315-83.344-83.344-83.344s-83.344 37.315-83.344 83.344c0 46.030 37.315 83.344 83.344 83.344s83.344-37.315 83.344-83.344zM563.23 356.797c0-29.518-23.929-53.447-53.447-53.447s-53.447 23.929-53.447 53.447c0 29.518 23.929 53.447 53.447 53.447s53.447-23.929 53.447-53.447zM802.801 532.458c67.172 328.731-199.884 479.177-496.342 431.83-296.457-47.276-285.321-226.626-302.77-312.204-34.721-214.425 186.053-454.102 186.053-454.102l-12.59-249.182h359.515l27.521 114.59c0 0 15.605-26.174 108.489-34.047 92.92-7.873 81.571 105.546 81.571 105.546s61.852 27.273 61.852 47.737-36.601 46.886-36.601 46.886 39.367-7.093 53.589 9.469c14.151 16.562-17.378 76.428-17.378 76.428s48.517 1.206 77.102 32.699c28.585 31.387-90.012 124.414-90.012 184.351zM289.364 487.523c0 0-2.022 22.202-3.015 33.302-8.937 2.376-17.556 5.533-25.819 9.221-9.789-8.299-29.366-24.861-29.366-24.861s-3.334-1.844-5.001-2.766c-1.667-0.887-32.806 2.766-32.806 2.766l-53.553 63.235v37.771c0 0 20.606 17.449 30.891 26.174-2.234 8.441-3.582 17.094-4.185 25.996-13.512 6.171-40.466 18.478-40.466 18.478l-10.817 31.458 1.241 5.143 34.579 75.329 36.565 9.611c0 0 23.265-10.64 34.863-15.924 7.093 5.745 14.754 10.959 22.84 15.534-1.17 14.044-3.44 42.098-3.44 42.098l26.741 26.706 82.564 6.668 26.741-26.741c0 0 1.702-21.315 2.589-31.955 10.746-2.908 20.996-6.774 30.749-11.491 8.937 7.696 26.848 23.017 26.848 23.017h37.842l53.943-62.916v-37.771c0 0-21.882-18.726-32.841-28.124 1.631-7.625 2.518-15.498 2.873-23.443 13.832-7.98 41.424-23.939 41.424-23.939l9.611-36.565-41.459-71.712-36.565-9.611c0 0-21.457 12.413-32.203 18.584-6.065-4.717-12.555-8.902-19.293-12.768 1.277-14.328 3.866-42.949 3.866-42.949l-26.706-26.741-82.458-7.519-26.777 26.706zM625.756 276.396l-23.443-6.171c0 0-13.761 7.98-20.676 11.916-3.901-3.015-8.051-5.675-12.378-8.157 0.816-9.221 2.483-27.557 2.483-27.557l-17.13-17.13-52.879-4.823-17.13 17.13c0 0-1.312 14.222-1.951 21.386-5.745 1.525-11.243 3.582-16.527 5.923-6.277-5.32-18.832-15.96-18.832-15.96s-2.163-1.17-3.192-1.773c-1.064-0.603-21.067 1.773-21.067 1.773l-34.331 40.608v24.223c0 0 13.193 11.207 19.79 16.811-1.419 5.391-2.27 10.959-2.66 16.669-8.689 3.937-25.961 11.881-25.961 11.881l-6.951 20.144 0.78 3.298 22.166 48.304 23.478 6.171c0 0 14.896-6.774 22.343-10.214 4.54 3.688 9.469 7.022 14.647 9.966-0.709 9.008-2.163 27.025-2.163 27.025l17.13 17.13 52.95 4.256 17.165-17.13c0 0 1.099-13.654 1.631-20.499 6.916-1.88 13.477-4.362 19.719-7.377 5.745 4.93 17.236 14.789 17.236 14.789h24.294l34.614-40.395v-24.259c0 0-14.044-12.023-21.067-18.052 1.064-4.894 1.596-9.93 1.809-15.037 8.866-5.143 26.599-15.357 26.599-15.357l6.136-23.478-26.635-46.034z" horiz-adv-x="897" />
<glyph unicode="&#xe602;" d="M0 416.39c0-46.398 4.34-88.378 13.022-125.934 8.678-37.554 20.696-70.184 36.052-97.892s34.884-52.078 58.586-73.108c23.7-21.032 49.406-38.224 77.112-51.576 27.706-13.35 59.336-24.198 94.888-32.546 35.552-8.346 71.856-14.188 108.91-17.528 37.054-3.338 77.78-5.006 122.178-5.006 44.732 0 85.626 1.668 122.68 5.006 37.054 3.34 73.442 9.184 109.16 17.528 35.718 8.346 67.512 19.194 95.388 32.546 27.876 13.354 53.746 30.544 77.616 51.576 23.872 21.030 43.566 45.404 59.086 73.108 15.52 27.706 27.624 60.336 36.302 97.892 8.68 37.554 13.020 79.536 13.020 125.934 0 82.788-27.708 154.394-83.118 214.816 3.004 8.012 5.758 17.108 8.262 27.29s4.84 24.702 7.010 43.564c2.17 18.862 1.336 40.642-2.504 65.346-3.838 24.704-10.932 49.906-21.286 75.612l-7.51 1.502c-5.342 1-14.106 0.75-26.29-0.752s-26.374-4.506-42.562-9.014c-16.19-4.506-37.054-13.186-62.592-26.038s-52.494-28.958-80.87-48.32c-48.736 13.352-115.668 20.030-200.792 20.030-84.792 0-151.556-6.678-200.294-20.030-28.376 19.362-55.5 35.468-81.37 48.32s-46.484 21.532-61.84 26.038c-15.354 4.508-29.71 7.428-43.062 8.764-13.354 1.336-21.784 1.752-25.288 1.252s-6.26-1.086-8.262-1.752c-10.348-25.706-17.442-50.906-21.28-75.612-3.838-24.704-4.674-46.486-2.504-65.346s4.508-33.382 7.010-43.564c2.504-10.182 5.258-19.278 8.262-27.29-55.412-60.422-83.12-132.026-83.12-214.816zM125.684 290.706c0 48.070 21.866 92.136 65.596 132.194 13.018 12.022 28.208 21.116 45.566 27.292 17.358 6.178 36.97 9.682 58.836 10.518 21.866 0.834 42.812 0.668 62.842-0.502 20.028-1.168 44.732-2.754 74.108-4.756 29.376-2.004 54.748-3.004 76.112-3.004 21.366 0 46.736 1 76.112 3.004 29.378 2.002 54.078 3.588 74.112 4.756 20.030 1.17 40.972 1.336 62.842 0.502 21.866-0.836 41.474-4.34 58.838-10.518 17.356-6.176 32.542-15.27 45.564-27.292 43.728-39.392 65.598-83.456 65.598-132.194 0-28.71-3.59-54.162-10.77-76.364-7.178-22.202-16.358-40.81-27.542-55.83-11.184-15.022-26.704-27.792-46.568-38.306-19.862-10.516-39.222-18.61-58.084-24.29-18.862-5.674-43.066-10.098-72.608-13.27-29.546-3.172-55.916-5.092-79.118-5.758-23.202-0.668-52.66-1.002-88.378-1.002s-65.178 0.334-88.378 1.002c-23.2 0.666-49.574 2.586-79.116 5.758s-53.744 7.596-72.606 13.27c-18.86 5.68-38.222 13.776-58.084 24.29s-35.386 23.282-46.568 38.306c-11.182 15.022-20.364 33.628-27.54 55.83-7.178 22.202-10.766 47.658-10.766 76.364zM640 300.8c0-53.020 28.654-96 64-96s64 42.98 64 96-28.654 96-64 96-64-42.98-64-96zM256 300.8c0-53.020 28.654-96 64-96s64 42.98 64 96-28.654 96-64 96-64-42.98-64-96z" />
<glyph unicode="&#xe603;" d="M814.080 921.6h-249.395c-65.362 0-147.681-9.646-216.658-66.458-52.122-44.79-77.476-106.414-77.476-162.079 0-94.321 72.643-189.911 200.96-189.911 12.104 0 25.364 1.229 38.779 2.406-6.062-14.469-12.175-26.563-12.175-47.155 0-37.509 19.384-60.447 36.321-82.227-54.415-3.604-156.14-9.646-231.24-55.583-71.424-42.414-93.256-104.038-93.256-147.599-0.020-89.498 84.756-172.995 260.321-172.995 208.241 0 318.444 114.893 318.444 228.659 0 83.374-48.435 124.559-101.704 169.308l-43.602 33.843c-13.261 10.906-31.416 25.385-31.416 52.019 0 26.593 18.156 43.561 33.864 59.279 50.821 39.895 101.704 82.227 101.704 171.725 0 91.945-58.163 140.329-85.975 163.297h75.1l77.404 43.469zM707.625 181.463c0-74.988-61.778-130.591-178.022-130.591-129.516 0-213.084 61.686-213.084 147.507 0 85.934 77.496 114.872 104.1 124.559 50.883 16.957 116.244 19.364 127.119 19.364 12.124 0 18.176 0 27.904-1.188 92.037-65.3 131.983-97.987 131.983-159.652zM610.744 570.89c-19.384-19.313-52.101-33.843-82.381-33.843-104.079 0-151.276 134.277-151.276 215.276 0 31.457 6.062 64.082 26.604 89.498 19.384 24.187 53.258 39.926 84.756 39.926 100.465 0 152.576-135.465 152.576-222.515 0-21.811-2.468-60.477-30.28-88.34z" />
<glyph unicode="&#xe604;" d="M165.888-22.528l146.432 146.432c179.2-115.712 420.864-95.232 576.512 61.44 180.224 180.224 180.224 473.088 0 653.312s-473.088 180.224-653.312 0c-156.672-156.672-177.152-398.336-61.44-577.536l-145.408-146.432c-37.888-37.888-37.888-99.328 0-137.216s99.328-37.888 137.216 0zM359.424 714.752c111.616 111.616 293.888 111.616 406.528 0 111.616-111.616 111.616-293.888 0-406.528-111.616-111.616-293.888-111.616-406.528 0-111.616 111.616-111.616 293.888 0 406.528z" />
<glyph unicode="&#xe605;" d="M254.436 734.006h14.599c22.941 0 40.668 18.77 40.668 40.668v156.415c0 22.941-18.77 40.668-40.668 40.668h-14.599c-22.941 0-40.668-18.77-40.668-40.668v-156.415c0-21.898 18.77-40.668 40.668-40.668zM781.035 735.048h14.599c22.941 0 40.668 18.77 40.668 40.668v156.415c0 22.941-18.77 40.668-40.668 40.668h-14.599c-21.898 0-40.668-18.77-40.668-40.668v-155.373c0-22.941 18.77-41.711 40.668-41.711zM976.033 888.336h-105.32v-123.047c0-40.668-33.369-63.609-74.037-63.609h-14.599c-40.668 0-74.037 33.369-74.037 74.037v112.619h-363.927v-113.662c0-40.668-33.369-74.037-74.037-74.037h-14.599c-40.668 0-74.037 33.369-74.037 74.037v113.662h-114.705c-36.497 0-66.737-30.24-66.737-66.737v-806.061c0-36.497 30.24-66.737 66.737-66.737h909.295c36.497 0 66.737 30.24 66.737 66.737v806.061c0 36.497-30.24 66.737-66.737 66.737zM976.033 15.537h-909.295v608.978h909.295v-608.978c0 0 0 0 0 0zM555.796 420.132h119.919c5.214 0 8.342 4.171 8.342 8.342v104.277c0 5.214-4.171 8.342-8.342 8.342h-119.919c-5.214 0-8.342-4.171-8.342-8.342v-104.277c0-5.214 3.128-8.342 8.342-8.342zM751.837 420.132h119.919c5.214 0 8.342 4.171 8.342 8.342v104.277c0 5.214-4.171 8.342-8.342 8.342h-119.919c-5.214 0-8.342-4.171-8.342-8.342v-104.277c-1.043-5.214 3.128-8.342 8.342-8.342zM164.758 250.16h119.919c5.214 0 8.342 4.171 8.342 8.342v104.277c0 5.214-4.171 8.342-8.342 8.342h-119.919c-5.214 0-8.342-4.171-8.342-8.342v-104.277c0-4.171 3.128-8.342 8.342-8.342zM360.798 250.16h118.876c5.214 0 8.342 4.171 8.342 8.342v104.277c0 5.214-4.171 8.342-8.342 8.342h-118.876c-5.214 0-8.342-4.171-8.342-8.342v-104.277c-1.043-4.171 3.128-8.342 8.342-8.342zM555.796 250.16h119.919c5.214 0 8.342 4.171 8.342 8.342v104.277c0 5.214-4.171 8.342-8.342 8.342h-119.919c-5.214 0-8.342-4.171-8.342-8.342v-104.277c0-4.171 3.128-8.342 8.342-8.342zM751.837 250.16h119.919c5.214 0 8.342 4.171 8.342 8.342v104.277c0 5.214-4.171 8.342-8.342 8.342h-119.919c-5.214 0-8.342-4.171-8.342-8.342v-104.277c-1.043-4.171 3.128-8.342 8.342-8.342zM284.676 201.15h-119.919c-5.214 0-8.342-4.171-8.342-8.342v-104.277c0-5.214 4.171-8.342 8.342-8.342h119.919c5.214 0 8.342 4.171 8.342 8.342v104.277c0 4.171-4.171 8.342-8.342 8.342zM479.674 201.15h-118.876c-5.214 0-8.342-4.171-8.342-8.342v-104.277c0-5.214 4.171-8.342 8.342-8.342h118.876c5.214 0 8.342 4.171 8.342 8.342v104.277c1.043 4.171-3.128 8.342-8.342 8.342zM675.715 201.15h-119.919c-5.214 0-8.342-4.171-8.342-8.342v-104.277c0-5.214 4.171-8.342 8.342-8.342h119.919c5.214 0 8.342 4.171 8.342 8.342v104.277c0 4.171-3.128 8.342-8.342 8.342zM870.713 201.15h-118.876c-5.214 0-8.342-4.171-8.342-8.342v-104.277c0-5.214 4.171-8.342 8.342-8.342h119.919c5.214 0 8.342 4.171 8.342 8.342v104.277c0 4.171-4.171 8.342-9.385 8.342z" horiz-adv-x="1043" />
<glyph unicode="&#xe606;" d="M441.19 295.578c-26.931-141.005-59.75-276.173-157.082-346.778-30.003 213.094 44.083 373.094 78.541 542.976-58.726 98.816 7.066 297.574 130.816 248.576 152.32-60.211-131.891-367.206 58.88-405.606 199.219-39.987 280.525 345.6 156.979 470.989-178.432 181.146-519.475 4.25-477.491-255.078 10.189-63.386 75.674-82.586 26.163-170.086-114.227 25.293-148.326 115.405-143.923 235.52 7.066 196.608 176.589 334.182 346.675 353.28 215.091 24.115 416.973-79.002 444.877-281.293 31.386-228.403-97.075-475.802-327.117-457.984-62.362 4.864-88.474 35.789-137.318 65.485z" />
<glyph unicode="&#xe607;" d="M912 908.8h-800c-52.8 0-96-43.2-96-96s43.2-96 96-96h800c52.8 0 96 43.2 96 96s-43.2 96-96 96zM912 556.8h-800c-52.8 0-96-43.2-96-96s43.2-96 96-96h800c52.8 0 96 43.2 96 96s-43.2 96-96 96zM912 204.8h-800c-52.8 0-96-43.2-96-96s43.2-96 96-96h800c52.8 0 96 43.2 96 96s-43.2 96-96 96z" />
<glyph unicode="&#xe608;" d="M890.511 88.504c20.716 0 38.666 6.84 53.924 20.347l-261.1 261.11c-6.267-4.485-12.339-8.847-18.074-12.995-19.538-14.397-35.4-25.631-47.575-33.679-12.175-8.069-28.375-16.292-48.599-24.689-20.234-8.407-39.086-12.595-56.576-12.595h-1.024c-17.49 0-36.342 4.188-56.576 12.595-20.234 8.397-36.434 16.62-48.599 24.689-12.175 8.049-28.027 19.282-47.575 33.679-5.448 3.994-11.489 8.376-18.022 13.066l-261.151-261.181c15.258-13.507 33.219-20.347 53.934-20.347h757.012zM103.158 534.385c-19.538 13.025-36.864 27.945-51.948 44.749v-397.261l230.134 230.134c-46.039 32.143-105.359 72.888-178.186 122.378zM921.375 534.385c-70.052-47.411-129.587-88.228-178.616-122.47l230.042-230.052v397.271c-14.746-16.466-31.887-31.375-51.425-44.749zM890.511 812.616h-757.012c-26.409 0-46.715-8.919-60.938-26.737-14.234-17.828-21.34-40.12-21.34-66.857 0-21.596 9.431-44.995 28.283-70.205 18.852-25.201 38.912-44.995 60.17-59.392 11.653-8.233 46.797-32.666 105.431-73.288 31.652-21.934 59.177-41.052 82.831-57.549 20.163-14.049 37.55-26.214 51.907-36.311 1.649-1.157 4.239-3.011 7.68-5.468 3.707-2.662 8.397-6.042 14.182-10.22 11.141-8.059 20.398-14.572 27.771-19.548 7.363-4.977 16.282-10.537 26.747-16.712 10.455-6.164 20.316-10.803 29.573-13.885s17.828-4.628 25.713-4.628h1.024c7.885 0 16.456 1.546 25.713 4.628s19.108 7.711 29.573 13.885c10.455 6.175 19.364 11.745 26.747 16.712 7.373 4.977 16.63 11.489 27.771 19.548 5.775 4.178 10.465 7.557 14.172 10.209 3.441 2.468 6.031 4.311 7.69 5.478 11.182 7.782 28.611 19.896 52.040 36.168 42.639 29.624 105.431 73.226 188.641 130.98 25.027 17.48 45.937 38.574 62.74 63.252 16.773 24.678 25.18 50.565 25.18 77.65 0 22.63-8.151 41.994-24.422 58.122-16.292 16.108-35.584 24.166-57.866 24.166z" />
<glyph unicode="&#xe609;" d="M786.739 639.375l-178.565-178.575 178.565-178.575c26.563-26.563 26.563-69.612 0-96.174-13.271-13.271-30.669-19.917-48.067-19.917-17.408 0-34.806 6.636-48.077 19.917l-178.596 178.586-178.586-178.586c-13.271-13.271-30.669-19.917-48.077-19.917-17.398 0-34.785 6.636-48.067 19.917-26.563 26.552-26.563 69.601 0 96.174l178.555 178.575-178.565 178.575c-26.563 26.563-26.563 69.612 0 96.174 26.552 26.542 69.581 26.542 96.143 0l178.596-178.586 178.586 178.586c26.563 26.542 69.591 26.542 96.143 0 26.573-26.563 26.573-69.612 0.010-96.174z" />
<glyph unicode="&#xe60a;" d="M953.217-51.2c125.051 0 226.507 103.816 226.507 232.406s-101.456 232.406-226.507 232.406c-226.507 0-75.502 450.654 226.507 450.654v108.535c-537.954 0-749.124-1024-226.507-1024zM302.009-51.2c125.051 0 226.507 103.816 226.507 232.406s-101.456 232.406-226.507 232.406c-226.507 0-75.502 450.654 226.507 450.654v108.535c-539.134 0-750.304-1024-226.507-1024z" horiz-adv-x="1180" />
<glyph unicode="&#xe60b;" d="M1024 972.8h-877.714c-80.457 0-146.286-65.829-146.286-146.286v-512c0-80.457 65.829-146.286 146.286-146.286h292.571l292.571-219.429v219.429h292.571c80.457 0 146.286 65.829 146.286 146.286v512c0 80.457-65.829 146.286-146.286 146.286z" horiz-adv-x="1170" />
<glyph unicode="&#xe60c;" d="M890.511 88.504c20.716 0 38.666 6.84 53.924 20.347l-261.1 261.11c-6.267-4.485-12.339-8.847-18.074-12.995-19.538-14.397-35.4-25.631-47.575-33.679-12.175-8.069-28.375-16.292-48.599-24.689-20.234-8.407-39.086-12.595-56.576-12.595h-1.024c-17.49 0-36.342 4.188-56.576 12.595-20.234 8.397-36.434 16.62-48.599 24.689-12.175 8.049-28.027 19.282-47.575 33.679-5.448 3.994-11.489 8.376-18.022 13.066l-261.151-261.181c15.258-13.507 33.219-20.347 53.934-20.347h757.012zM103.158 534.385c-19.538 13.025-36.864 27.945-51.948 44.749v-397.261l230.134 230.134c-46.039 32.143-105.359 72.888-178.186 122.378zM921.375 534.385c-70.052-47.411-129.587-88.228-178.616-122.47l230.042-230.052v397.271c-14.746-16.466-31.887-31.375-51.425-44.749zM890.511 812.616h-757.012c-26.409 0-46.715-8.919-60.938-26.737-14.234-17.828-21.34-40.12-21.34-66.857 0-21.596 9.431-44.995 28.283-70.205 18.852-25.201 38.912-44.995 60.17-59.392 11.653-8.233 46.797-32.666 105.431-73.288 31.652-21.934 59.177-41.052 82.831-57.549 20.163-14.049 37.55-26.214 51.907-36.311 1.649-1.157 4.239-3.011 7.68-5.468 3.707-2.662 8.397-6.042 14.182-10.22 11.141-8.059 20.398-14.572 27.771-19.548 7.363-4.977 16.282-10.537 26.747-16.712 10.455-6.164 20.316-10.803 29.573-13.885s17.828-4.628 25.713-4.628h1.024c7.885 0 16.456 1.546 25.713 4.628s19.108 7.711 29.573 13.885c10.455 6.175 19.364 11.745 26.747 16.712 7.373 4.977 16.63 11.489 27.771 19.548 5.775 4.178 10.465 7.557 14.172 10.209 3.441 2.468 6.031 4.311 7.69 5.478 11.182 7.782 28.611 19.896 52.040 36.168 42.639 29.624 105.431 73.226 188.641 130.98 25.027 17.48 45.937 38.574 62.74 63.252 16.773 24.678 25.18 50.565 25.18 77.65 0 22.63-8.151 41.994-24.422 58.122-16.292 16.108-35.584 24.166-57.866 24.166z" />
<glyph unicode="&#xe60d;" d="M786.739 639.375l-178.565-178.575 178.565-178.575c26.563-26.563 26.563-69.612 0-96.174-13.271-13.271-30.669-19.917-48.067-19.917-17.408 0-34.806 6.636-48.077 19.917l-178.596 178.586-178.586-178.586c-13.271-13.271-30.669-19.917-48.077-19.917-17.398 0-34.785 6.636-48.067 19.917-26.563 26.552-26.563 69.601 0 96.174l178.555 178.575-178.565 178.575c-26.563 26.563-26.563 69.612 0 96.174 26.552 26.542 69.581 26.542 96.143 0l178.596-178.586 178.586 178.586c26.563 26.542 69.591 26.542 96.143 0 26.573-26.563 26.573-69.612 0.010-96.174z" />
<glyph unicode="&#xe60e;" d="M1024 778.382c-37.676-16.708-78.164-28.002-120.66-33.080 43.374 26 76.686 67.17 92.374 116.23-40.598-24.078-85.556-41.56-133.41-50.98-38.32 40.83-92.922 66.34-153.348 66.34-116.022 0-210.086-94.058-210.086-210.078 0-16.466 1.858-32.5 5.44-47.878-174.6 8.764-329.402 92.4-433.018 219.506-18.084-31.028-28.446-67.116-28.446-105.618 0-72.888 37.088-137.192 93.46-174.866-34.438 1.092-66.832 10.542-95.154 26.278-0.020-0.876-0.020-1.756-0.020-2.642 0-101.788 72.418-186.696 168.522-206-17.626-4.798-36.188-7.372-55.348-7.372-13.538 0-26.698 1.32-39.528 3.774 26.736-83.46 104.32-144.208 196.252-145.898-71.9-56.35-162.486-89.934-260.916-89.934-16.958 0-33.68 0.994-50.116 2.942 92.972-59.612 203.402-94.394 322.042-94.394 386.422 0 597.736 320.124 597.736 597.744 0 9.108-0.206 18.168-0.61 27.18 41.054 29.618 76.67 66.618 104.834 108.746z" />
<glyph unicode="&#xe60f;" d="M853.333 785.067c-25.6 8.533-183.467 17.067-341.333 17.067s-315.733-8.533-341.333-17.067c-68.267-21.333-85.333-170.667-85.333-324.267s17.067-302.933 85.333-324.267c25.6-8.533 183.467-17.067 341.333-17.067s315.733 8.533 341.333 17.067c68.267 21.333 85.333 170.667 85.333 324.267s-17.067 302.933-85.333 324.267zM426.667 268.8v384l256-192-256-192z" />
<glyph unicode="&#xe610;" d="M256 640c0 141.385 114.615 256 256 256s256-114.615 256-256c0-141.385-114.615-256-256-256s-256 114.615-256 256zM768 320h-512c-141.384 0-256-114.618-256-256v-64h1024v64c0 141.382-114.616 256-256 256z" />
<glyph unicode="&#xe611;" d="M864 832l-480-480-224 224-160-160 384-384 640 640z" />
<glyph unicode="&#xe612;" d="M927.527 739.387c-21.13 6.932-38.203 43.953-29.657 64.295 7.168 16.994 15.143 20.834 1.654 34.324-10.752 10.594-21.721-4.017-30.366-8.684-3.722-2.048-9.255-3.426-11.934-3.958-15.833-3.111-53.839 9.905-53.839 46.533 0 9.649-3.958 13.43-14.257 13.391-9.984-0.020-15.793-1.733-18.294-13.036-2.225-10.063-4.706-22.626-11.126-28.396-11.264-10.142-25.856-19.003-43.874-18.471-7.778 0.236-17.506 7.798-25.836 13.056-8.783 5.553-15.399 7.838-24.517-1.201-9.452-9.393-5.494-15.852-0.256-24.261 5.199-8.35 14.1-18.196 12.82-25.935-2.462-14.848-9.039-30.11-17.861-42.319-4.726-6.558-17.506-8.468-27.038-10.004-11.323-1.851-13.804-7.109-13.883-17.782-0.098-11.402 4.214-15.557 14.848-17.447 9.039-1.575 21.524-3.052 25.639-9.177 8.724-13.056 15.222-28.652 18.137-44.071 1.339-7.129-7.168-16.738-12.446-24.359-6.242-9.058-6.951-15.419 1.753-24.261 9.354-9.472 16.128-8.33 25.62-1.418 7.030 5.12 16.364 13.056 22.942 11.638 15.36-3.308 30.917-9.669 43.914-18.471 6.105-4.175 7.050-16.679 9.236-25.679 2.166-8.901 2.875-16.581 15.833-16.66 12.386-0.079 17.664 3.84 20.519 15.714 2.442 10.181 5.435 24.911 12.642 28.377 22.174 10.693 43.559 27.333 63.921 7.286 2.028-1.989 13.726-10.496 27.097 3.013 11.914 12.012 5.79 22.823-1.103 30.523-20.756 23.198-3.86 67.623 17.113 67.033 21.543-0.571 28.849 2.993 28.849 21.012-0.020 18.747-18.609 16.896-26.25 19.397zM789.799 634.368c-42.102 0.197-75.894 34.599-75.697 77.056 0.217 41.787 35.092 75.953 77.194 75.638 41.098-0.315 75.225-35.092 75.106-76.583-0.138-42.24-34.402-76.288-76.603-76.111zM536.005 183.355c-21.15 6.951-38.203 43.973-29.637 64.295 7.168 17.014 15.124 20.854 1.654 34.324-10.772 10.594-21.74-3.998-30.366-8.684-3.722-2.028-9.255-3.407-11.934-3.938-15.833-3.131-53.839 9.905-53.839 46.513 0 9.669-3.958 13.45-14.257 13.41-9.984-0.039-15.774-1.753-18.274-13.036-2.225-10.063-4.706-22.626-11.146-28.416-11.284-10.122-25.856-18.983-43.874-18.452-7.759 0.236-17.506 7.798-25.836 13.036-8.783 5.573-15.419 7.838-24.517-1.182-9.452-9.393-5.474-15.852-0.256-24.261 5.199-8.35 14.119-18.196 12.82-25.935-2.481-14.848-9.039-30.11-17.881-42.338-4.726-6.538-17.506-8.448-27.038-9.984-11.323-1.851-13.804-7.109-13.883-17.782-0.098-11.402 4.214-15.557 14.848-17.447 9.039-1.575 21.543-3.052 25.639-9.177 8.724-13.056 15.202-28.652 18.117-44.071 1.339-7.129-7.168-16.738-12.426-24.359-6.262-9.058-6.971-15.419 1.753-24.281 9.334-9.452 16.148-8.31 25.6-1.398 7.010 5.1 16.364 13.056 22.942 11.638 15.38-3.308 30.937-9.669 43.914-18.491 6.124-4.155 7.050-16.66 9.236-25.659 2.166-8.901 2.875-16.581 15.833-16.66 12.367-0.079 17.664 3.84 20.519 15.714 2.442 10.181 5.415 24.911 12.642 28.377 22.174 10.693 43.559 27.333 63.902 7.286 2.028-1.989 13.745-10.496 27.116 2.993 11.914 12.032 5.79 22.843-1.103 30.543-20.756 23.198-3.86 67.623 17.113 67.033 21.543-0.571 28.849 2.993 28.849 21.012 0 18.747-18.57 16.876-26.23 19.377zM398.277 78.356c-42.082 0.197-75.894 34.599-75.678 77.036 0.197 41.807 35.072 75.973 77.174 75.658 41.098-0.315 75.225-35.092 75.106-76.603-0.118-42.24-34.383-76.288-76.603-76.091zM591.577 661.583c-37.829 12.426-68.372 78.71-53.051 115.082 12.82 30.425 27.077 37.278 2.954 61.42-19.279 18.964-38.892-7.168-54.351-15.557-6.676-3.643-16.542-6.124-21.366-7.070-28.337-5.593-96.354 17.723-96.354 83.279 0.020 17.31-7.089 24.044-25.521 23.985-17.881-0.059-28.239-3.111-32.709-23.335-3.998-17.999-8.428-40.527-19.929-50.865-20.185-18.117-46.316-34.009-78.533-33.044-13.903 0.394-31.35 13.962-46.257 23.375-15.714 9.964-27.589 14.021-43.874-2.127-16.955-16.798-9.826-28.357-0.453-43.422 9.295-14.966 25.265-32.571 22.961-46.434-4.431-26.565-16.167-53.878-31.98-75.776-8.448-11.717-31.311-15.124-48.364-17.881-20.263-3.289-24.714-12.721-24.871-31.823-0.158-20.401 7.562-27.845 26.565-31.193 16.207-2.836 38.558-5.474 45.903-16.423 15.616-23.375 27.234-51.298 32.453-78.907 2.402-12.761-12.839-29.932-22.252-43.599-11.205-16.226-12.465-27.589 3.131-43.461 16.719-16.935 28.869-14.868 45.824-2.54 12.603 9.157 29.302 23.394 41.058 20.854 27.51-5.927 55.355-17.31 78.592-33.103 10.949-7.463 12.623-29.834 16.522-45.922 3.879-15.951 5.12-29.657 28.337-29.814 22.154-0.158 31.606 6.873 36.706 28.121 4.352 18.196 9.728 44.564 22.587 50.786 39.719 19.141 77.982 48.896 114.393 13.056 3.623-3.584 24.576-18.806 48.522 5.376 21.307 21.524 10.358 40.862-1.969 54.626-37.14 41.511-6.912 121.029 30.641 119.985 38.577-1.063 51.633 5.356 51.633 37.593-0.020 33.615-33.26 30.287-46.946 34.757zM345.068 473.659c-75.323 0.354-135.838 61.932-135.463 137.905 0.354 74.791 62.779 135.956 138.142 135.365 73.57-0.532 134.636-62.799 134.439-137.058-0.236-75.618-61.558-136.546-137.118-136.212z" />
<glyph unicode="&#xe613;" d="M633.131 522.469l47.896-27.378 95.808 54.756-143.704 85.526zM924.006 697.004l34.222 61.585c27.363 47.927-51.318 102.683-88.978 123.186-37.66 20.549-123.186 65.038-150.564 13.689l-47.911-82.134c-47.942 10.267-102.698 17.111-157.439 17.111-284.046 0.015-513.337-154.001-513.337-342.225 0-188.193 229.29-342.194 513.337-342.194 0 0 0 0 3.438 0 3.422-41.067-44.489-109.512-112.949-143.734 270.388 0 393.573 201.912 393.573 201.912 136.89 61.6 225.853 164.268 225.853 284.046 6.844 78.696-34.207 150.564-99.245 208.757zM236.12 392.409c-27.378 0-47.911 20.549-47.911 47.927s20.533 47.911 47.911 47.911 47.911-20.533 47.911-47.911-23.925-47.927-47.911-47.927zM362.743 392.409c-27.378 0-47.911 20.549-47.911 47.927s20.533 47.911 47.911 47.911 47.911-20.533 47.911-47.911-20.533-47.927-47.911-47.927zM489.381 392.409c-27.378 0-47.927 20.549-47.927 47.927s20.549 47.911 47.927 47.911 47.911-20.533 47.911-47.911-20.533-47.927-47.911-47.927zM793.976 539.565l-99.245-54.756-82.149-44.474v205.335l136.905 236.135c6.829 13.689 54.756 0 106.074-27.378 51.334-27.378 85.556-61.585 75.289-75.289l-136.875-239.572z" />
<glyph unicode="&#xe614;" d="M1024 473.987c0-275.49-225.041-498.813-502.693-498.813-88.144 0-170.951 22.528-242.995 62.066l-278.312-88.439 90.738 267.628c-45.773 75.162-72.135 163.317-72.135 257.559 0 275.49 225.064 498.813 502.704 498.813 277.675 0 502.693-223.323 502.693-498.813zM521.307 893.36c-233.062 0-422.639-188.132-422.639-419.374 0-91.762 29.912-176.742 80.509-245.874l-52.804-155.75 162.418 51.621c66.731-43.816 146.671-69.37 232.528-69.37 233.028 0 422.639 188.109 422.639 419.351s-189.599 419.396-422.65 419.396zM775.157 359.105c-3.106 5.086-11.31 8.158-23.62 14.268-12.334 6.11-72.932 35.703-84.196 39.765-11.298 4.073-19.536 6.121-27.739-6.11-8.203-12.242-31.824-39.765-39.026-47.923-7.191-8.181-14.37-9.205-26.704-3.083-12.311 6.11-52.008 19.035-99.078 60.678-36.625 32.404-61.36 72.408-68.551 84.662-7.179 12.231-0.751 18.842 5.404 24.929 5.552 5.484 12.334 14.279 18.489 21.413 6.178 7.145 8.226 12.231 12.311 20.4 4.13 8.158 2.071 15.292-1.024 21.424-3.072 6.11-27.739 66.276-38.002 90.761-10.263 24.462-20.514 20.389-27.716 20.389-7.179 0-15.406 1.024-23.62 1.024s-21.572-3.061-32.87-15.292c-11.287-12.242-43.11-41.825-43.11-101.979 0-60.166 44.134-118.295 50.313-126.441 6.155-8.146 85.22-135.623 210.489-184.582 125.281-48.936 125.281-32.609 147.877-30.561 22.574 2.037 72.886 29.571 83.194 58.106 10.24 28.581 10.24 53.055 7.179 58.152z" />
<glyph unicode="&#xe615;" d="M465.92 409.498h92.16v-102.4h465.92c0 0-7.578 228.25-10.24 299.725-2.509 67.891-26.778 109.875-102.4 109.875h-164.25c-25.446 47.974-52.838 99.584-61.235 115.456-16.947 31.949-22.733 38.144-60.416 38.144h-226.918c-37.683 0-43.469-6.195-60.416-38.144-8.397-15.872-35.789-67.482-61.235-115.456h-164.25c-75.622 0-99.584-41.984-102.4-109.875s-10.24-299.725-10.24-299.725h465.92v102.4zM391.68 772.25c11.725 22.118 15.77 26.419 41.779 26.419h157.030c26.112 0 30.106-4.301 41.779-26.419 4.403-8.294 16.282-30.72 29.491-55.501h-299.52c13.158 24.73 25.037 47.155 29.44 55.501zM558.080 153.498h-92.16v102.4h-440.32c0 0 6.4-92.058 10.24-170.086 1.587-32.41 11.11-85.914 92.109-85.914h768.102c80.998 0 90.317 53.555 92.109 85.914 4.454 80.23 10.24 170.086 10.24 170.086h-440.32v-102.4z" />
<glyph unicode="&#xe616;" d="M1024 352l-192 192v288h-128v-160l-192 192-512-512v-32h128v-320h320v192h128v-192h320v320h128z" />
<glyph unicode="&#xe936;" d="M1232 960h-384c-26.4 0-63.274-15.274-81.942-33.942l-476.116-476.116c-18.668-18.668-18.668-49.214 0-67.882l412.118-412.118c18.668-18.668 49.214-18.668 67.882 0l476.118 476.118c18.666 18.666 33.94 55.54 33.94 81.94v384c0 26.4-21.6 48-48 48zM992 576c-53.020 0-96 42.98-96 96s42.98 96 96 96 96-42.98 96-96-42.98-96-96-96zM128 416l544 544h-80c-26.4 0-63.274-15.274-81.942-33.942l-476.116-476.116c-18.668-18.668-18.668-49.214 0-67.882l412.118-412.118c18.668-18.668 49.214-18.668 67.882 0l30.058 30.058-416 416z" horiz-adv-x="1280" />
</font>
</defs>
</svg>
